<svg xmlns="http://www.w3.org/2000/svg" viewBox="0 0 128 128" fill="none">
  <defs>
    <linearGradient id="shell" x1="20" y1="14" x2="108" y2="118" gradientUnits="userSpaceOnUse">
      <stop stop-color="#2F7DF6" />
      <stop offset="0.55" stop-color="#1455CB" />
      <stop offset="1" stop-color="#081320" />
    </linearGradient>
    <radialGradient id="glow" cx="0" cy="0" r="1" gradientUnits="userSpaceOnUse" gradientTransform="translate(35 24) rotate(42) scale(84 78)">
      <stop stop-color="#DDF1FF" stop-opacity="0.42" />
      <stop offset="1" stop-color="#DDF1FF" stop-opacity="0" />
    </radialGradient>
    <linearGradient id="orbit" x1="30" y1="92" x2="101" y2="42" gradientUnits="userSpaceOnUse">
      <stop stop-color="#1FCF9F" />
      <stop offset="1" stop-color="#91F0D2" />
    </linearGradient>
  </defs>

  <rect x="10" y="10" width="108" height="108" rx="30" fill="url(#shell)" />
  <rect x="10.5" y="10.5" width="107" height="107" rx="29.5" stroke="rgba(232, 242, 255, 0.22)" />
  <circle cx="39" cy="31" r="34" fill="url(#glow)" />

  <path
    d="M40 33V93M40 33H67C80 33 89 41 89 53C89 65 80 73 67 73H40M68 73L88 93"
    stroke="#F3F8FF"
    stroke-width="12"
    stroke-linecap="round"
    stroke-linejoin="round"
  />

  <path
    d="M28 89C39 101 58 107 77 102C90 99 101 91 107 80"
    stroke="url(#orbit)"
    stroke-width="8"
    stroke-linecap="round"
  />

  <circle cx="95" cy="36" r="7" fill="#1FCF9F" />
</svg>
