<svg xmlns="http://www.w3.org/2000/svg" viewBox="0 0 64 64" fill="none">
  <defs>
    <linearGradient id="csharp-gradient" x1="12" y1="10" x2="54" y2="54" gradientUnits="userSpaceOnUse">
      <stop stop-color="#6C43F3" />
      <stop offset="1" stop-color="#390091" />
    </linearGradient>
  </defs>
  <path
    d="M32 4 56 18v28L32 60 8 46V18L32 4Z"
    fill="url(#csharp-gradient)"
    stroke="#A995FF"
    stroke-width="2"
    stroke-linejoin="round"
  />
  <path
    d="M21.5 23.5a13.5 13.5 0 0 1 10.1-4.2c3.6 0 7 1.4 9.6 3.9l-3.6 3.4a8.4 8.4 0 0 0-6-2.4 8.4 8.4 0 0 0 0 16.8 8.5 8.5 0 0 0 6.1-2.5l3.5 3.5a13.4 13.4 0 0 1-9.6 4c-7.5 0-13.6-6.1-13.6-13.6 0-3.3 1.2-6.5 3.5-8.9Z"
    fill="#fff"
  />
  <path d="M39.5 27.2h10.8v2.8H39.5zM39.5 34h10.8v2.8H39.5z" fill="#fff" />
  <path d="M45.9 23.1h2.8v17.8h-2.8z" fill="#fff" />
</svg>
